<svg width="21" height="21" viewBox="0 0 21 21" fill="none" xmlns="http://www.w3.org/2000/svg">
<g clip-path="url(#clip0_742_18187)">
<path d="M10.5 4.59375C10.5 4.4197 10.4309 4.25278 10.3078 4.12971C10.1847 4.00664 10.0178 3.9375 9.84375 3.9375C9.6697 3.9375 9.50278 4.00664 9.37971 4.12971C9.25664 4.25278 9.1875 4.4197 9.1875 4.59375V11.8125C9.18754 11.9282 9.21815 12.0418 9.27623 12.1418C9.33432 12.2418 9.41781 12.3247 9.51825 12.3821L14.112 15.0071C14.2628 15.0886 14.4394 15.1079 14.6042 15.0608C14.7689 15.0138 14.9088 14.9042 14.9938 14.7554C15.0788 14.6066 15.1023 14.4305 15.0591 14.2646C15.016 14.0988 14.9097 13.9564 14.763 13.8679L10.5 11.4319V4.59375Z" fill="#252626"/>
<path d="M10.5 21C13.2848 21 15.9555 19.8938 17.9246 17.9246C19.8938 15.9555 21 13.2848 21 10.5C21 7.71523 19.8938 5.04451 17.9246 3.07538C15.9555 1.10625 13.2848 0 10.5 0C7.71523 0 5.04451 1.10625 3.07538 3.07538C1.10625 5.04451 0 7.71523 0 10.5C0 13.2848 1.10625 15.9555 3.07538 17.9246C5.04451 19.8938 7.71523 21 10.5 21ZM19.6875 10.5C19.6875 12.9367 18.7195 15.2736 16.9965 16.9965C15.2736 18.7195 12.9367 19.6875 10.5 19.6875C8.06332 19.6875 5.72645 18.7195 4.00346 16.9965C2.28047 15.2736 1.3125 12.9367 1.3125 10.5C1.3125 8.06332 2.28047 5.72645 4.00346 4.00346C5.72645 2.28047 8.06332 1.3125 10.5 1.3125C12.9367 1.3125 15.2736 2.28047 16.9965 4.00346C18.7195 5.72645 19.6875 8.06332 19.6875 10.5Z" fill="#252626"/>
</g>
<defs>
<clipPath id="clip0_742_18187">
<rect width="21" height="21" fill="white"/>
</clipPath>
</defs>
</svg>
