<svg width="24" height="20" viewBox="0 0 24 20" fill="none" xmlns="http://www.w3.org/2000/svg">
<path fill-rule="evenodd" clip-rule="evenodd" d="M12.1552 0C11.7582 0 11.3774 0.151391 11.0966 0.420881L1.14411 9.97451C1.00354 10.1095 0.924561 10.2925 0.924561 10.4834C0.924561 10.6742 1.00354 10.8573 1.14411 10.9923C1.28469 11.1272 1.47535 11.203 1.67415 11.203C1.87296 11.203 2.06362 11.1272 2.2042 10.9923L3.17152 10.0634V17.6709C3.17152 18.2428 3.40815 18.7912 3.82934 19.1956C4.25054 19.6 4.8218 19.8271 5.41747 19.8271H18.8931C19.4888 19.8271 20.0601 19.6 20.4813 19.1956C20.9025 18.7912 21.1391 18.2428 21.1391 17.6709V10.0636L22.1063 10.9923C22.2468 11.1272 22.4375 11.203 22.6363 11.203C22.8351 11.203 23.0258 11.1272 23.1663 10.9923C23.3069 10.8573 23.3859 10.6742 23.3859 10.4834C23.3859 10.2925 23.3069 10.1095 23.1663 9.97451L19.6418 6.59121V1.85838C19.6418 1.66776 19.5629 1.48494 19.4225 1.35015C19.2821 1.21536 19.0917 1.13963 18.8931 1.13963H17.3958C17.1973 1.13963 17.0069 1.21536 16.8665 1.35015C16.7261 1.48494 16.6472 1.66776 16.6472 1.85838V3.71664L13.2138 0.420881C12.933 0.151391 12.5523 0 12.1552 0ZM19.6418 8.62584L12.1552 1.43719L4.66882 8.62571V17.6709C4.66882 17.8615 4.74769 18.0443 4.88809 18.1791C5.02849 18.3139 5.21891 18.3896 5.41747 18.3896H18.8931C19.0917 18.3896 19.2821 18.3139 19.4225 18.1791C19.5629 18.0443 19.6418 17.8615 19.6418 17.6709V8.62584Z" fill="#252626"/>
</svg>
