<svg width="1179" height="132" viewBox="0 0 1179 132" fill="none" xmlns="http://www.w3.org/2000/svg">
<path fill-rule="evenodd" clip-rule="evenodd" d="M65.9756 132C102.413 132 131.951 102.451 131.951 66C131.951 29.5492 102.413 0 65.9756 0C29.5383 0 0 29.5492 0 66C0 102.451 29.5383 132 65.9756 132ZM65.9756 92.4C80.5505 92.4 92.3658 80.5803 92.3658 66C92.3658 51.4197 80.5505 39.6 65.9756 39.6C51.4007 39.6 39.5854 51.4197 39.5854 66C39.5854 80.5803 51.4007 92.4 65.9756 92.4Z" fill="#252626"/>
<path d="M296.89 66C296.89 102.451 267.352 132 230.915 132C194.477 132 164.939 102.451 164.939 66C164.939 29.5492 194.477 0 230.915 0C267.352 0 296.89 29.5492 296.89 66Z" fill="#252626"/>
<path d="M463.095 7.14141L477.302 56.3304L493.008 7.14141H516.607V122.1H498.77V83.0962L499.875 31.7754L482.195 86.6492H472.329L456.307 33.6703L457.333 83.0962V122.1H439.575V7.14141H463.095Z" fill="#252626"/>
<path d="M550.22 7.14141H617.938V22.8535H593.392V106.467H617.938V122.1H550.22V106.467H574.213V22.8535H550.22V7.14141Z" fill="#252626"/>
<path d="M671.245 106.467H729.334V122.1H648.672L648.593 109.467L704.946 22.8535H649.145V7.14141H727.519L727.677 19.4584L671.245 106.467Z" fill="#252626"/>
<path d="M815.117 95.65H779.048L771.234 122.1H751.503L788.914 7.14141H805.725L842.504 122.1H822.852L815.117 95.65ZM783.862 79.3853H810.46L797.28 33.9072L783.862 79.3853Z" fill="#252626"/>
<path d="M876.193 122.1L861.197 7.14141H878.798L886.69 77.7272L887.243 82.2277L888.032 77.4904L899.082 7.14141H913.604L925.048 77.8062L925.837 82.5435L926.39 77.7272L934.361 7.14141H952.041L936.887 122.1H918.971L907.29 51.751L906.501 46.3031L905.632 51.751L894.109 122.1H876.193Z" fill="#252626"/>
<path d="M1021.16 77.4904H1001.75V122.1H982.806V7.14141H1019.27C1025.22 7.19404 1030.69 7.95728 1035.69 9.4311C1040.69 10.9049 1045 13.063 1048.63 15.9054C1052.21 18.8004 1055 22.4061 1057 26.7223C1059 30.9858 1060 35.9863 1060 41.7237C1060 45.6715 1059.47 49.2508 1058.42 52.4616C1057.42 55.6725 1056 58.5675 1054.16 61.1467C1052.31 63.7259 1050.1 65.9893 1047.53 67.9368C1044.95 69.8844 1042.08 71.5687 1038.92 72.9899L1063.47 121.074V122.1H1043.18L1021.16 77.4904ZM1001.75 62.0152H1019.51C1022.87 61.9625 1025.9 61.4625 1028.58 60.515C1031.32 59.5149 1033.63 58.0938 1035.53 56.2515C1037.21 54.6724 1038.53 52.7248 1039.47 50.4088C1040.42 48.0928 1040.9 45.4609 1040.9 42.5133C1040.9 39.1972 1040.37 36.3021 1039.32 33.8282C1038.32 31.3017 1036.82 29.1962 1034.82 27.5118C1032.98 25.9327 1030.74 24.7484 1028.11 23.9588C1025.48 23.1166 1022.53 22.6692 1019.27 22.6166H1001.75V62.0152Z" fill="#252626"/>
<path d="M1151.61 95.65H1115.54L1107.73 122.1H1088L1125.41 7.14141H1142.22L1179 122.1H1159.35L1151.61 95.65ZM1120.36 79.3853H1146.96L1133.78 33.9072L1120.36 79.3853Z" fill="#252626"/>
</svg>
